<?xml version="1.0" encoding="utf-8"?>
<!-- Generator: Adobe Illustrator 19.2.0, SVG Export Plug-In . SVG Version: 6.00 Build 0)  -->
<svg version="1.1" id="Layer_1" xmlns="http://www.w3.org/2000/svg" xmlns:xlink="http://www.w3.org/1999/xlink" x="0px" y="0px"
	 viewBox="0 0 25 25" style="enable-background:new 0 0 25 25;" xml:space="preserve">
<style type="text/css">
	.st0{clip-path:url(#SVGID_2_);}
	.st1{clip-path:url(#SVGID_4_);enable-background:new    ;}
	.st2{clip-path:url(#SVGID_6_);}
	.st3{clip-path:url(#SVGID_8_);}
	.st4{clip-path:url(#SVGID_10_);fill:#FFFFFF;}
	.st5{clip-path:url(#SVGID_12_);}
	.st6{clip-path:url(#SVGID_14_);fill:#FFFFFF;}
</style>
<g>
	<defs>
		<rect id="SVGID_1_" x="1.9" y="3.8" width="21.7" height="17.4"/>
	</defs>
	<clipPath id="SVGID_2_">
		<use xlink:href="#SVGID_1_"  style="overflow:visible;"/>
	</clipPath>
	<g class="st0">
		<defs>
			<rect id="SVGID_3_" x="-42.9" y="-214.8" width="171.5" height="568.8"/>
		</defs>
		<clipPath id="SVGID_4_">
			<use xlink:href="#SVGID_3_"  style="overflow:visible;"/>
		</clipPath>
		<g class="st1">
			<g>
				<defs>
					<rect id="SVGID_5_" x="1.5" y="3.8" width="22.4" height="17.4"/>
				</defs>
				<clipPath id="SVGID_6_">
					<use xlink:href="#SVGID_5_"  style="overflow:visible;"/>
				</clipPath>
				<g class="st2">
					<defs>
						<path id="SVGID_7_" d="M12.8,21.2c-2.9,0-5.7,0-8.6,0c-0.8,0-1.4-0.3-1.8-0.9c-0.3-0.4-0.4-0.8-0.4-1.2c0-0.9,0-1.8,0-2.7
							c0-2.3,0-4.7,0-7c0-1.3,1-2.3,2.3-2.3c0.8,0,1.6,0,2.4,0c0.5,0,0.8-0.2,1-0.7C7.8,5.8,8,5.2,8.2,4.6c0.2-0.5,0.5-0.7,1-0.7
							c2.4,0,4.7,0,7.1,0c0.5,0,0.9,0.2,1,0.8c0.2,0.6,0.4,1.2,0.6,1.8c0.2,0.5,0.5,0.8,1.1,0.8c0.8,0,1.6,0,2.4,0
							c1.2,0,2,0.7,2.2,1.9c0,0.1,0,0.2,0,0.3c0,3.2,0,6.5,0,9.7c0,1-0.7,1.9-1.7,2.2c-0.2,0-0.4,0.1-0.6,0.1
							C18.5,21.2,15.6,21.2,12.8,21.2 M12.8,19c3,0,5.4-2.4,5.4-5.4c0-3-2.4-5.4-5.4-5.4c-3,0-5.4,2.4-5.4,5.4
							C7.4,16.6,9.8,19,12.8,19 M21.5,10c0-0.4-0.4-0.8-0.8-0.8C20.3,9.2,20,9.6,20,10c0,0.4,0.3,0.8,0.8,0.8
							C21.1,10.8,21.5,10.4,21.5,10"/>
					</defs>
					<clipPath id="SVGID_8_">
						<use xlink:href="#SVGID_7_"  style="overflow:visible;"/>
					</clipPath>
					<g class="st3">
						<defs>
							<rect id="SVGID_9_" x="1.9" y="3.8" width="21.9" height="17.4"/>
						</defs>
						<clipPath id="SVGID_10_">
							<use xlink:href="#SVGID_9_"  style="overflow:visible;"/>
						</clipPath>
						<rect x="-0.4" y="1.5" class="st4" width="26.3" height="21.9"/>
					</g>
				</g>
			</g>
		</g>
	</g>
</g>
<g>
	<defs>
		<path id="SVGID_11_" d="M12.8,16.8c-1.8,0-3.2-1.5-3.3-3.3c0-1.8,1.5-3.3,3.3-3.3c1.8,0,3.2,1.5,3.2,3.3
			C16.1,15.4,14.6,16.8,12.8,16.8"/>
	</defs>
	<clipPath id="SVGID_12_">
		<use xlink:href="#SVGID_11_"  style="overflow:visible;"/>
	</clipPath>
	<g class="st5">
		<defs>
			<rect id="SVGID_13_" x="-42.9" y="-214.8" width="171.5" height="568.8"/>
		</defs>
		<clipPath id="SVGID_14_">
			<use xlink:href="#SVGID_13_"  style="overflow:visible;"/>
		</clipPath>
		<rect x="7.3" y="8" class="st6" width="11.1" height="11.1"/>
	</g>
</g>
</svg>
